<svg id="visual" viewBox="0 0 1600 200" width="1600" height="200" xmlns="http://www.w3.org/2000/svg" xmlns:xlink="http://www.w3.org/1999/xlink" version="1.1"><rect x="0" y="0" width="1600" height="200" fill="#f5faff"></rect><path d="M0 145L66.7 132C133.3 119 266.7 93 400 86.7C533.3 80.3 666.7 93.7 800 113.7C933.3 133.7 1066.7 160.3 1200 155C1333.3 149.7 1466.7 112.3 1533.3 93.7L1600 75L1600 201L1533.3 201C1466.7 201 1333.3 201 1200 201C1066.7 201 933.3 201 800 201C666.7 201 533.3 201 400 201C266.7 201 133.3 201 66.7 201L0 201Z" fill="#00252e" stroke-linecap="round" stroke-linejoin="miter"></path></svg>